# xmcd CD database file
#
# Track frame offsets:
#	150
#	20462
#	39652
#	56532
#	78617
#	101575
#	125297
#
# Disc length: 1890 seconds
#
# Revision: 2
# Processed by: cddbd v1.5.2PL0 Copyright (c) Steve Scherf et al.
# Submitted via: CDex 1.70beta2
#
DISCID=53076007
DTITLE=矢野顕子 - はじめてのやのあきこ
DYEAR=2006
DGENRE=Pop
TTITLE0=（Guest Artist 槇原敬之） - 自転車でおいで
TTITLE1=（Guest Artist 小田和正） - 中央線
TTITLE2=PRESTO -Accoustic Version-
TTITLE3=（Guest Artist YUKI） - ごはんができたよ
TTITLE4=（Guest Artist 井上陽水） - 架空の星空
TTITLE5=（Guest Artist 忌野清志郎） - ひとつだけ
TTITLE6=（Guest Artist 上原ひろみ） - そこのアイロンに告ぐ
EXTD=YEAR: 2006
EXTT0=
EXTT1=
EXTT2=
EXTT3=
EXTT4=
EXTT5=
EXTT6=
PLAYORDER=
